<svg width="840" height="270" viewBox="0 0 840 270" fill="none" xmlns="http://www.w3.org/2000/svg" role="img" aria-labelledby="title desc">
  <title id="title">Hello, I am Javis</title>
  <desc id="desc">Hello, I am Javis. 4,602,289,104 tokens · 70-day streak, live from Token Monitor.</desc>
  <defs>
    <linearGradient id="rule" x1="190" y1="0" x2="650" y2="0" gradientUnits="userSpaceOnUse">
      <stop offset="0" stop-color="#58A6FF" stop-opacity="0"/>
      <stop offset=".16" stop-color="#58A6FF" stop-opacity=".55"/>
      <stop offset=".5" stop-color="#58A6FF"/>
      <stop offset="1" stop-color="#58A6FF"/>
    </linearGradient>
  </defs>
  <style>
    text { font-family: -apple-system, BlinkMacSystemFont, "Segoe UI", "Noto Sans", Helvetica, Arial, sans-serif; }
    .counter { font-family: ui-monospace, SFMono-Regular, "SF Mono", Menlo, Consolas, "Liberation Mono", monospace; font-variant-numeric: tabular-nums; }
    .headline { animation: rise .9s cubic-bezier(.2,.6,.2,1) both; }
    .hairline { stroke-dasharray: 1; animation: draw 1.9s cubic-bezier(.45,0,.2,1) .5s both; }
    .now { animation: fade .7s ease-out 2.1s both; }
    .counter { animation: fade .8s ease-out 1.5s both; }
    @keyframes rise { from { opacity: 0; transform: translateY(7px); } to { opacity: 1; transform: none; } }
    @keyframes draw { from { stroke-dashoffset: 1; } to { stroke-dashoffset: 0; } }
    @keyframes fade { from { opacity: 0; } to { opacity: 1; } }
    @media (prefers-reduced-motion: reduce) {
      .headline, .hairline, .now, .counter { animation: none; }
    }
  </style>
  <text class="headline" x="420" y="102" text-anchor="middle" fill="#F0F6FC" font-size="42" font-weight="600" letter-spacing="-.4">Hello, I am Javis</text>
  <path class="hairline" pathLength="1" d="M190 168C201.33 168 212.67 168 224 168C231.33 168 238.67 152.5 246 152.07C250.64 151.8 255.29 151.84 259.93 151.62C264.57 151.4 269.22 150.55 273.86 150.47C278.51 150.39 283.15 150.33 287.79 150.33C292.44 150.33 297.08 152.37 301.72 153.6C306.37 154.84 311.01 157.64 315.66 157.89C320.3 158.14 324.94 158.3 329.59 158.3C334.23 158.3 338.87 157.71 343.52 157.47C348.16 157.23 352.8 156.99 357.45 156.85C362.09 156.71 366.74 156.61 371.38 156.53C376.02 156.44 380.67 156.33 385.31 156.33C389.95 156.33 394.6 156.72 399.24 156.72C403.89 156.72 408.53 155.9 413.17 155.41C417.82 154.91 422.46 153.69 427.1 153.69C431.75 153.69 436.39 156.66 441.03 157.03C445.68 157.39 450.32 157.68 454.97 157.68C459.61 157.68 464.25 155.13 468.9 155.13C473.54 155.13 478.18 155.38 482.83 155.38C487.47 155.38 492.11 155.07 496.76 154.8C501.4 154.53 506.05 153.5 510.69 153.5C515.33 153.5 519.98 153.57 524.62 153.57C529.26 153.57 533.91 152.27 538.55 151.52C543.2 150.76 547.84 149 552.48 149C557.13 149 561.77 150.87 566.41 151.69C571.06 152.51 575.7 153.96 580.34 153.96C584.99 153.96 589.63 153.43 594.28 153.43C598.92 153.43 603.56 154.1 608.21 154.35C612.85 154.61 617.49 154.71 622.14 155.01C626.78 155.32 631.43 155.97 636.07 156.55C640.71 157.13 645.36 157.9 650 158.57" stroke="url(#rule)" stroke-width="1.5" stroke-linecap="round"/>
  <circle class="now" cx="650" cy="158.57245425581453" r="2.4" fill="#58A6FF"/>
  <text class="counter" x="420" y="219" text-anchor="middle" font-size="14.5" letter-spacing=".2"><tspan fill="#C9D1D9">4,602,289,104 tokens</tspan><tspan fill="#8B949E"> · 70-day streak</tspan></text>
</svg>
